<svg xmlns="http://www.w3.org/2000/svg" width="880" height="70" viewBox="0 0 880 70" fill="none"><rect x="10" y="10" width="334.25" height="56" rx="6" fill="#0A0A0A"/><rect x="6" y="6" width="330.25" height="52" rx="4" fill="#FF8A4C" stroke="#0A0A0A" stroke-width="4"/><rect x="6" y="6" width="60" height="52" rx="4" fill="#0A0A0A"/><rect x="60" y="6" width="6" height="52" fill="#0A0A0A"/><path transform="translate(25.2 38.5)" fill="#FF8A4C" d="M1.1 -6.5Q1.1 -10 2.2 -11.7Q3.2 -13.4 5.4 -13.4Q7.6 -13.4 8.7 -11.7Q9.8 -10 9.8 -6.5Q9.8 -3.1 8.7 -1.4Q7.6 0.3 5.4 0.3Q3.2 0.3 2.2 -1.4Q1.1 -3.1 1.1 -6.5ZM4.1 -3Q4.5 -1.9 5.4 -1.9Q6.3 -1.9 6.7 -3Q7.1 -4.1 7.1 -6.5Q7.1 -7.5 7.1 -8.2L4 -3.3Q4.1 -3.2 4.1 -3ZM5.4 -11.2Q4.5 -11.2 4.1 -10.1Q3.7 -9 3.7 -6.5Q3.7 -5.8 3.7 -5.2L6.8 -10Q6.7 -10 6.7 -10.1Q6.3 -11.2 5.4 -11.2ZM15.7 -5.9L14.3 -5.9L14.3 -8.2L15.7 -8.2Q16.6 -8.2 17.2 -8.5Q17.7 -8.9 17.7 -9.6Q17.7 -10.3 17.2 -10.8Q16.6 -11.2 15.7 -11.2Q14.9 -11.2 14.1 -11Q13.2 -10.8 12.3 -10.4L12.3 -12.8Q13.2 -13.1 14.1 -13.2Q15 -13.4 15.8 -13.4Q17.9 -13.4 19 -12.5Q20.2 -11.5 20.2 -10Q20.2 -8.8 19.5 -8Q18.9 -7.3 17.6 -7.1Q19 -6.8 19.8 -6Q20.5 -5.1 20.5 -3.7Q20.5 -1.7 19.3 -0.7Q18.1 0.3 15.7 0.3Q14.7 0.3 13.8 0.1Q12.8 -0.1 11.9 -0.4L11.9 -2.8Q12.8 -2.4 13.7 -2.2Q14.7 -2 15.7 -2Q16.8 -2 17.4 -2.4Q18 -2.9 18 -3.8Q18 -4.8 17.4 -5.3Q16.8 -5.9 15.7 -5.9Z"/><path transform="translate(86.0 40.5)" fill="#0A0A0A" d="M0.8 -5.7L5.9 -6Q6 -4.8 6.6 -4.1Q7.4 -3.1 8.9 -3.1Q10 -3.1 10.6 -3.6Q11.3 -4.1 11.3 -4.9Q11.3 -5.5 10.7 -6Q10.1 -6.6 8 -7Q4.5 -7.8 3 -9.1Q1.5 -10.4 1.5 -12.4Q1.5 -13.8 2.2 -14.9Q3 -16.1 4.6 -16.8Q6.1 -17.5 8.8 -17.5Q12.1 -17.5 13.8 -16.2Q15.5 -15 15.9 -12.4L10.9 -12.1Q10.7 -13.2 10 -13.7Q9.4 -14.3 8.3 -14.3Q7.3 -14.3 6.9 -13.9Q6.4 -13.5 6.4 -12.9Q6.4 -12.5 6.8 -12.2Q7.1 -11.8 8.6 -11.6Q12 -10.8 13.5 -10Q15 -9.3 15.7 -8.1Q16.4 -7 16.4 -5.6Q16.4 -3.9 15.5 -2.5Q14.6 -1.1 12.9 -0.4Q11.3 0.3 8.8 0.3Q4.4 0.3 2.7 -1.4Q1.1 -3.1 0.8 -5.7ZM19.1 -17.2L33.3 -17.2L33.3 -13.5L24.4 -13.5L24.4 -10.8L32.7 -10.8L32.7 -7.3L24.4 -7.3L24.4 -3.9L33.6 -3.9L33.6 0L19.1 0ZM36.4 -17.2L41.7 -17.2L41.7 -4.2L50 -4.2L50 0L36.4 0ZM52.4 -17.2L66.6 -17.2L66.6 -13.5L57.7 -13.5L57.7 -10.8L66 -10.8L66 -7.3L57.7 -7.3L57.7 -3.9L66.9 -3.9L66.9 0L52.4 0ZM81.2 -7L85.9 -5.6Q85.4 -3.7 84.4 -2.3Q83.4 -1 81.9 -0.4Q80.4 0.3 78.1 0.3Q75.3 0.3 73.5 -0.5Q71.7 -1.3 70.4 -3.4Q69.1 -5.4 69.1 -8.6Q69.1 -12.9 71.4 -15.2Q73.7 -17.5 77.8 -17.5Q81.1 -17.5 82.9 -16.2Q84.8 -14.8 85.7 -12.1L81 -11.1Q80.8 -11.9 80.5 -12.2Q80 -12.8 79.4 -13.2Q78.8 -13.5 78 -13.5Q76.1 -13.5 75.2 -12Q74.5 -11 74.5 -8.7Q74.5 -5.8 75.3 -4.7Q76.2 -3.7 77.8 -3.7Q79.3 -3.7 80.1 -4.5Q80.8 -5.4 81.2 -7ZM87.2 -17.2L103.4 -17.2L103.4 -12.9L97.9 -12.9L97.9 0L92.6 0L92.6 -12.9L87.2 -12.9ZM105.8 -17.2L120 -17.2L120 -13.5L111.1 -13.5L111.1 -10.8L119.3 -10.8L119.3 -7.3L111.1 -7.3L111.1 -3.9L120.2 -3.9L120.2 0L105.8 0ZM123.2 -17.2L131.1 -17.2Q133.4 -17.2 134.8 -16.5Q136.3 -15.9 137.2 -14.7Q138.1 -13.5 138.6 -12Q139 -10.4 139 -8.6Q139 -5.9 138.3 -4.4Q137.7 -2.9 136.6 -1.8Q135.5 -0.8 134.2 -0.5Q132.5 0 131.1 0L123.2 0ZM128.5 -13.3L128.5 -3.9L129.8 -3.9Q131.4 -3.9 132.1 -4.3Q132.8 -4.6 133.2 -5.6Q133.6 -6.5 133.6 -8.5Q133.6 -11.3 132.8 -12.3Q131.9 -13.3 129.8 -13.3ZM148 -17.2L153 -17.2L154.9 -7.6L157.5 -17.2L162.5 -17.2L165.2 -7.6L167 -17.2L172 -17.2L168.2 0L163 0L160 -10.8L157 0L151.8 0ZM172.7 -8.6Q172.7 -12.8 175 -15.1Q177.4 -17.5 181.6 -17.5Q185.8 -17.5 188.2 -15.2Q190.5 -12.9 190.5 -8.7Q190.5 -5.7 189.5 -3.8Q188.5 -1.9 186.5 -0.8Q184.6 0.3 181.8 0.3Q178.9 0.3 177 -0.6Q175.1 -1.6 173.9 -3.6Q172.7 -5.6 172.7 -8.6ZM178 -8.6Q178 -6 179 -4.8Q179.9 -3.7 181.6 -3.7Q183.3 -3.7 184.2 -4.8Q185.2 -5.9 185.2 -8.8Q185.2 -11.2 184.2 -12.3Q183.2 -13.5 181.5 -13.5Q179.9 -13.5 179 -12.3Q178 -11.2 178 -8.6ZM193.4 0L193.4 -17.2L202.3 -17.2Q204.7 -17.2 206 -16.8Q207.3 -16.3 208.1 -15.2Q208.9 -14.1 208.9 -12.4Q208.9 -11 208.3 -9.9Q207.7 -8.9 206.6 -8.3Q206 -7.9 204.8 -7.6Q205.7 -7.3 206.2 -6.9Q206.4 -6.7 207 -6Q207.6 -5.4 207.8 -5L210.3 0L204.3 0L201.5 -5.3Q200.9 -6.3 200.5 -6.6Q199.9 -7 199.2 -7L198.8 -7L198.8 0ZM198.8 -10.2L201 -10.2Q201.4 -10.2 202.4 -10.5Q202.9 -10.6 203.3 -11Q203.6 -11.4 203.6 -12Q203.6 -12.8 203.1 -13.3Q202.5 -13.7 201.1 -13.7L198.8 -13.7ZM212 -17.2L217.3 -17.2L217.3 -10.7L222.9 -17.2L230 -17.2L223.7 -10.7L230.3 0L223.7 0L220.1 -7.1L217.3 -4.2L217.3 0L212 0Z"/><rect x="360.2" y="30.0" width="489.8" height="4" fill="#0A0A0A"/><rect x="858" y="24.0" width="16" height="16" fill="#FF8A4C" stroke="#0A0A0A" stroke-width="3" transform="rotate(45 866 32.0)"/></svg>
